<svg viewBox="0 0 24 24" width="20" height="20" fill="currentColor" xmlns="http://www.w3.org/2000/svg"><g><path d="m 5.505,11.41 0.53,0.53 z M 3,14.95 H 2.25 Z m 9.59,3.54 -0.53,-0.53 z M 9.048,21 v 0.75 z M 11.41,5.505 10.88,4.975 Z m 1.83,12.335 c 0.58,0.59 1.6,-0.52 1.06,-1.06 z M 7.216,9.698 C 6.519,9.001 5.463,10.07 6.156,10.76 Z M 6.035,11.94 11.94,6.035 10.88,4.975 4.975,10.88 Z m 0,6.02 C 5.185,17.11 4.602,16.53 4.223,16.03 3.856,15.55 3.75,15.24 3.75,14.95 h -1.5 c 0,0.75 0.312,1.38 0.78,1.99 0.455,0.6 1.125,1.27 1.945,2.09 z M 4.975,10.88 C 4.155,11.7 3.485,12.37 3.03,12.96 2.562,13.58 2.25,14.2 2.25,14.95 h 1.5 c 0,-0.29 0.106,-0.6 0.473,-1.08 0.379,-0.49 0.962,-1.08 1.812,-1.93 z m 7.085,7.08 c -0.85,0.85 -1.44,1.44 -1.93,1.82 -0.483,0.36 -0.793,0.47 -1.082,0.47 v 1.5 c 0.748,0 1.372,-0.31 1.992,-0.78 0.59,-0.46 1.26,-1.12 2.08,-1.94 z m -7.085,1.07 c 0.82,0.82 1.487,1.48 2.084,1.94 0.614,0.47 1.24,0.78 1.989,0.78 v -1.5 C 8.759,20.25 8.449,20.14 7.968,19.78 7.471,19.4 6.885,18.81 6.035,17.96 Z M 17.96,6.035 c 0.85,0.85 1.44,1.436 1.82,1.933 0.36,0.481 0.47,0.791 0.47,1.08 h 1.5 C 21.75,8.299 21.44,7.673 20.97,7.059 20.51,6.462 19.85,5.795 19.03,4.975 Z m 1.07,-1.06 C 18.21,4.155 17.54,3.485 16.94,3.03 16.33,2.562 15.7,2.25 14.95,2.25 v 1.5 c 0.29,0 0.6,0.106 1.08,0.473 0.5,0.379 1.08,0.962 1.93,1.812 z m -7.09,1.06 C 12.79,5.185 13.38,4.602 13.87,4.223 14.35,3.856 14.66,3.75 14.95,3.75 v -1.5 c -0.75,0 -1.37,0.312 -1.99,0.78 -0.59,0.455 -1.26,1.125 -2.08,1.945 z M 14.3,16.78 7.216,9.698 6.156,10.76 13.24,17.84 Z m 5.23,-4.17 c 0.66,-0.66 1.21,-1.23 1.58,-1.77 0.39,-0.55 0.64,-1.125 0.64,-1.792 h -1.5 c 0,0.26 -0.1,0.534 -0.36,0.931 -0.3,0.411 -0.75,0.901 -1.42,1.581 l -2.5,2.52 -3.91,3.88 1.06,1.07 2.95,-2.96 z" id="path1" /></g></svg>
