<svg viewBox="0 0 497.4 542" width="20" height="20" fill="#000000" xmlns="http://www.w3.org/2000/svg"><g id="g6" transform="translate(0,18.69)"><path d="M 186.6,453.4 447.1,183.6 C 463.8,166.3 484,143 494.9,120.9 l 2.5,-5.1 -135,-134.49 -5.1,2.63 C 335.7,-4.899 316.1,9.353 299.1,26.72 L 39.36,293.8 l -0.38,2.5 c -5.54,36.5 -0.96,78.4 -9.62,114.2 l -6.84,28.2 2.17,2.2 L 0,465.6 v 39.3 h 43.31 l 22.46,-20.4 2.17,2.2 8.98,-3.9 C 110.7,468.2 142.5,446 178.8,452.1 Z M 36.69,484.9 H 16 v -12.7 l 20,-20 18.46,18.3 z M 69.68,466.7 41.49,435.1 C 51.71,405 51.47,353.8 52.12,319.2 L 159.5,431.7 c -32.2,5.7 -59.77,22.2 -89.82,35 z M 94.47,337.4 185.7,246.7 c 7.1,-6.9 16.4,-10.9 26.3,-10.9 20.6,0 44,25.8 44,46.3 0,10 -3.9,19.3 -10.9,26.4 L 152,401.6 Z m 68.83,75.5 93.1,-93.1 c 10.1,-10.1 15.6,-23.4 15.6,-37.7 0,-29.3 -30.6,-62.3 -60,-62.3 -14.2,0 -27.4,5.6 -37.6,15.6 L 83.16,326.1 58.14,297.4 310.6,37.9 C 324.9,23.16 341.4,10.73 359.4,0.9131 L 478,119.1 c -9.4,18.3 -22.8,34.6 -37.2,49.3 L 182.2,434 Z" id="path1" /><rect x="-406" y="37.07" transform="rotate(-135)" width="16" height="135.8" id="rect1" style="stroke-width:0.99999" /><rect x="72" y="476.9" width="392" height="46.36" id="rect3" /></g></svg>
