<?xml version="1.0" encoding="UTF-8" standalone="no"?>
<svg
   width="24"
   height="24"
   viewBox="0 0 13.422667 14.72858"
   fill="none"
   stroke="currentColor"
   stroke-width="1.5"
   stroke-linecap="round"
   stroke-linejoin="round"
   version="1.1"
   id="svg7"
   sodipodi:docname="stamp3.svg"
   inkscape:version="1.4.4 (dcaf3e7d9e, 2026-05-05)"
   xmlns:inkscape="http://www.inkscape.org/namespaces/inkscape"
   xmlns:sodipodi="http://sodipodi.sourceforge.net/DTD/sodipodi-0.dtd"
   xmlns="http://www.w3.org/2000/svg"
   xmlns:svg="http://www.w3.org/2000/svg">
  <defs
     id="defs7" />
  <sodipodi:namedview
     id="namedview7"
     pagecolor="#ffffff"
     bordercolor="#000000"
     borderopacity="0.25"
     inkscape:showpageshadow="2"
     inkscape:pageopacity="0.0"
     inkscape:pagecheckerboard="0"
     inkscape:deskcolor="#d1d1d1"
     inkscape:zoom="16"
     inkscape:cx="8.8125"
     inkscape:cy="11.15625"
     inkscape:window-width="1256"
     inkscape:window-height="1362"
     inkscape:window-x="0"
     inkscape:window-y="0"
     inkscape:window-maximized="0"
     inkscape:current-layer="svg7" />
  <path
     d="M 9.7258458,8.6050866 C 9.5031748,6.5279564 9.0391508,5.1473744 10.687467,3.7456 11.840954,2.7646431 11.311024,0.96762342 9.6483298,0.48636502 7.9785583,0.00305842 6.8878706,1.1602594 6.7330631,2.3395329 6.5270643,3.908766 8.4582573,4.8011624 5.7435133,7.1446364"
     id="path8"
     sodipodi:nodetypes="csssc"
     style="stroke-width:0.753;stroke-dasharray:none;stroke:#000000;stroke-opacity:1" />
  <path
     style="stroke-width:0.753;stroke-dasharray:none;stroke:#000000;stroke-opacity:1"
     d="M 0.37649577,9.8552256 6.2234488,14.35204 12.816068,12.996079 7.0784834,8.1532644 Z"
     id="path5"
     sodipodi:nodetypes="ccccc" />
  <path
     d="M 0.38811452,9.8439694 1.3859082,8.3438566 7.623914,6.7848776 13.046127,11.600309 c -0.201487,1.191073 -0.231813,1.38623 -0.231813,1.38623"
     id="path7"
     sodipodi:nodetypes="ccccc"
     style="stroke-width:0.753;stroke-dasharray:none;stroke:#000000;stroke-opacity:1" />
  <path
     style="fill:none;stroke-width:0.753;stroke-dasharray:none"
     d="M 4.5893752,9.7548301 C 3.7124235,10.049971 3.4300324,11.205422 4.3686326,11.429125 5.1312055,11.501755 5.4884021,10.194306 6.1679751,9.8914747 7.245522,9.482835 7.6280601,10.587187 6.4703915,11.491517 c -0.7100281,0.56607 -0.7210832,1.261019 0.2599861,1.321354 1.0984132,0.01092 1.1980397,-1.598381 1.9855816,-1.498033 0.9172818,0.265666 0.2889228,1.430183 0.1806304,1.652142"
     id="path2"
     sodipodi:nodetypes="ccccccc" />
  <path
     style="fill:none;stroke:#000000;stroke-width:0.753;stroke-dasharray:none;stroke-opacity:1"
     d="M 7.6176082,6.8028661 7.0865,8.0980252"
     id="path3"
     sodipodi:nodetypes="cc" />
</svg>
