<?xml version="1.0" encoding="UTF-8" standalone="no"?>
<svg
   width="25"
   height="25"
   viewBox="0 0 12.776233 14.696234"
   fill="none"
   stroke="currentColor"
   stroke-width="1.5"
   stroke-linecap="round"
   stroke-linejoin="round"
   version="1.1"
   id="svg7"
   sodipodi:docname="stamp4.svg"
   inkscape:version="1.4.4 (dcaf3e7d9e, 2026-05-05)"
   xmlns:inkscape="http://www.inkscape.org/namespaces/inkscape"
   xmlns:sodipodi="http://sodipodi.sourceforge.net/DTD/sodipodi-0.dtd"
   xmlns="http://www.w3.org/2000/svg"
   xmlns:svg="http://www.w3.org/2000/svg">
  <defs
     id="defs7" />
  <sodipodi:namedview
     id="namedview7"
     pagecolor="#ffffff"
     bordercolor="#000000"
     borderopacity="0.25"
     inkscape:showpageshadow="2"
     inkscape:pageopacity="0.0"
     inkscape:pagecheckerboard="0"
     inkscape:deskcolor="#d1d1d1"
     inkscape:zoom="4"
     inkscape:cx="26.5"
     inkscape:cy="33.625"
     inkscape:window-width="1256"
     inkscape:window-height="1362"
     inkscape:window-x="0"
     inkscape:window-y="0"
     inkscape:window-maximized="0"
     inkscape:current-layer="svg7" />
  <path
     d="M 9.7141936,7.2980704 C 9.4915226,5.2209402 8.4017897,4.4177822 10.241869,3.2793522 11.476721,2.5153677 11.082399,0.96244195 9.4197051,0.48118355 7.7499336,-0.00212302 6.9304615,1.2364427 6.8570187,2.0360144 6.7122532,3.6120763 8.9619147,3.4399031 5.7318611,5.8376202"
     id="path8"
     sodipodi:nodetypes="csssc"
     style="stroke:#000000;stroke-width:0.753;stroke-dasharray:none;stroke-opacity:1" />
  <path
     style="stroke:#000000;stroke-width:0.753;stroke-dasharray:none;stroke-opacity:1"
     d="M -0.23183084,9.8229226 5.6151222,14.319737 12.207741,12.963776 6.4701568,8.1209614 Z"
     id="path5"
     sodipodi:nodetypes="ccccc" />
  <path
     d="M -0.22021209,9.8116664 1.374256,7.0368404 7.6122618,5.4778614 13.034474,10.293292 12.203862,12.957325"
     id="path7"
     sodipodi:nodetypes="ccccc"
     style="stroke:#000000;stroke-width:0.753;stroke-dasharray:none;stroke-opacity:1" />
  <path
     style="fill:none;stroke:#000000;stroke-width:0.753;stroke-dasharray:none;stroke-opacity:1"
     d="M 7.5517128,5.6585792 6.4781734,8.0657222"
     id="path3"
     sodipodi:nodetypes="cc" />
  <path
     style="fill:none;stroke-width:0.522107;stroke-dasharray:none"
     d="m 4.5793475,10.201081 c -0.6080511,0.204641 -0.8038523,1.005795 -0.1530561,1.160904 0.5287444,0.05036 0.7764134,-0.856185 1.2476082,-1.066158 0.7471375,-0.283339 1.0123776,0.482385 0.2096861,1.109419 -0.4923114,0.392495 -0.4999766,0.874351 0.1802663,0.916186 0.7616055,0.0076 0.8306835,-1.108268 1.3767406,-1.03869 0.6360147,0.184204 0.1523854,0.838222 0.077299,0.992121"
     id="path2"
     sodipodi:nodetypes="ccccccc" />
  <path
     d="M 1.7306957,10.206477 5.8638804,13.385256 10.198715,12.480977 6.142842,9.0576121 Z"
     id="path5-6"
     sodipodi:nodetypes="ccccc"
     style="stroke-width:0.655202;stroke-dasharray:none" />
</svg>
